# xmcd
#
# Track frame offsets: 
#        150
#        27032
#        51655
#        82015
#        112752
#        140162
#        160427
#        187965
#        221775
#        249127
#
# Disc length: 3968 seconds
#
# Revision: 0
# Processed by: cddbd v1.5.2PL0 Copyright (c) Steve Scherf et al.
# Submitted via: ExactAudioCopy v0.95b3
#
DISCID=8a0f7e0a
DTITLE=Brotherhood Of Groove - Bog Style
DYEAR=2006
DGENRE=Funk
TTITLE0=Uptown
TTITLE1=Get Up
TTITLE2=Bombs For Peace
TTITLE3=Wookie World
TTITLE4=Feeling Soul
TTITLE5=New Orleans Mambo
TTITLE6=Windjammer
TTITLE7=Green Zombies
TTITLE8=Rediculous
TTITLE9=Get Ready To Roll
EXTD=
EXTT0=
EXTT1=
EXTT2=
EXTT3=
EXTT4=
EXTT5=
EXTT6=
EXTT7=
EXTT8=
EXTT9=
PLAYORDER=
